<?xml version="1.0" encoding="utf-8"?>
<!-- Generator: Adobe Illustrator 16.0.3, SVG Export Plug-In . SVG Version: 6.00 Build 0)  -->
<!DOCTYPE svg PUBLIC "-//W3C//DTD SVG 1.1//EN" "http://www.w3.org/Graphics/SVG/1.1/DTD/svg11.dtd">
<svg version="1.1" id="Layer_1" xmlns="http://www.w3.org/2000/svg" xmlns:xlink="http://www.w3.org/1999/xlink" x="0px" y="0px"
	 width="68.439px" height="68.439px" viewBox="0 0 68.439 68.439" enable-background="new 0 0 68.439 68.439" xml:space="preserve">
<path fill="#DEDA00" d="M35.667,28.348v1.631c0,0.267-0.145,0.397-0.433,0.397c-4.236-0.576-7.874-2.063-10.913-4.458l-2.828-2.629
	h-0.23c0,0.224-0.269,0.767-0.801,1.631v2.43c0.18,1.376,1.12,2.928,2.828,4.657v0.199c-0.932,0-1.875-0.267-2.828-0.798v0.198
	c0,2.596,1.688,4.824,5.06,6.688l-0.399,0.2h-0.998l-1.031-0.2v0.398c1.554,2.841,3.517,4.26,5.891,4.26v0.599
	c-2.662,1.619-5.302,2.43-7.919,2.43h-1.197v0.398c3.814,1.753,7.12,2.629,9.915,2.629c5.854,0,10.847-2.361,14.972-7.087
	c2.975-4.126,4.459-8.041,4.459-11.745V28.78c2.151-2.063,3.238-3.217,3.263-3.461V25.12c-0.777,0.398-1.863,0.742-3.263,1.03
	l-0.198-0.433c1.265-0.731,2.206-1.74,2.826-3.027v-0.198h-0.2c-1.996,0.953-3.206,1.431-3.627,1.431h-0.601
	c-1.484-1.22-2.84-1.896-4.06-2.029h-1.63c-2.265,0-4.082,1.275-5.457,3.826C35.867,26.385,35.667,27.26,35.667,28.348z"/>
</svg>
