<?xml version="1.0" encoding="utf-8"?>
<!-- Generator: Adobe Illustrator 16.0.3, SVG Export Plug-In . SVG Version: 6.00 Build 0)  -->
<!DOCTYPE svg PUBLIC "-//W3C//DTD SVG 1.1//EN" "http://www.w3.org/Graphics/SVG/1.1/DTD/svg11.dtd">
<svg version="1.1" id="Layer_1" xmlns="http://www.w3.org/2000/svg" xmlns:xlink="http://www.w3.org/1999/xlink" x="0px" y="0px"
	 width="68.439px" height="68.439px" viewBox="0 0 68.439 68.439" enable-background="new 0 0 68.439 68.439" xml:space="preserve">
<path fill="#DEDA00" d="M28.531,21.811l0.199,6.288c0,0.198-0.199,0.409-0.601,0.632h-3.46v7.087h3.46
	c0.199,0,0.399,0.211,0.601,0.634v17.467l0.1,1.23h7.22V36.25c0.047-0.288,0.18-0.434,0.398-0.434h5.891
	c0.268,0,0.609-2.229,1.031-6.688V28.73h-6.922c-0.266,0-0.398-0.133-0.398-0.398V23.44c0-2.085,1.221-3.237,3.66-3.46h4.061v-6.089
	c0-0.398-1.42-0.6-4.258-0.6H38.48c-4.683,0-7.731,1.752-9.151,5.257C29.063,19.281,28.796,20.368,28.531,21.811z"/>
</svg>
