<?xml version="1.0" encoding="utf-8"?>
<!-- Generator: Adobe Illustrator 16.0.3, SVG Export Plug-In . SVG Version: 6.00 Build 0)  -->
<!DOCTYPE svg PUBLIC "-//W3C//DTD SVG 1.1//EN" "http://www.w3.org/Graphics/SVG/1.1/DTD/svg11.dtd">
<svg version="1.1" id="Layer_1" xmlns="http://www.w3.org/2000/svg" xmlns:xlink="http://www.w3.org/1999/xlink" x="0px" y="0px"
	 width="56.611px" height="76.012px" viewBox="0 0 56.611 76.012" enable-background="new 0 0 56.611 76.012" xml:space="preserve">
<g>
	<path fill="#696E69" d="M56.611,76.012h-3c0-9.501-8.892-19.264-10.941-21.388h-0.264c-0.744,0-1.376-0.546-1.484-1.282
		c-0.107-0.736,0.34-1.44,1.053-1.654c4.86-1.461,7.957-3.584,8.495-5.826c1.369-5.708,0.92-23.277-8.314-32.883
		c-0.432-0.448-0.541-1.116-0.276-1.678c2.764-5.871,2.351-7.991,1.988-8.271c-0.042-0.032-0.052-0.036-0.128-0.022
		c-0.847,0.163-2.647,1.93-4.762,5.509c-0.406,0.688-1.277,0.938-1.986,0.567c-2.51-1.311-5.328-2.083-8.377-2.293
		c-2.832-0.198-5.59,0.494-8.229,2.046c-0.711,0.416-1.623,0.185-2.047-0.521c-2.07-3.451-3.825-5.152-4.646-5.307
		c-0.083-0.017-0.086-0.01-0.125,0.022c-0.365,0.282-0.777,2.427,2.035,8.368c0.259,0.545,0.165,1.193-0.238,1.643
		C6.213,23.252,3.133,41.521,7.513,47.705c1.13,1.596,3.312,2.979,6.308,3.999c0.695,0.237,1.116,0.941,0.996,1.665
		c-0.065,0.396-0.283,0.735-0.587,0.961C12.971,55.598,3,65.971,3,76.012H0c0-9.448,7.368-18.645,10.693-22.313
		c-2.541-1.139-4.429-2.566-5.628-4.261C-0.35,41.796,3.55,22.449,12.48,11.79C9.849,5.947,9.606,2.3,11.734,0.655
		c0.729-0.563,1.604-0.766,2.515-0.596c1.767,0.333,3.749,2.18,5.903,5.495c2.785-1.372,5.693-1.961,8.669-1.758
		c2.965,0.206,5.748,0.883,8.294,2.017c2.208-3.47,4.243-5.403,6.058-5.752c0.919-0.177,1.794,0.028,2.527,0.593
		c2.113,1.632,1.891,5.235-0.685,11.002c9.371,10.586,9.818,28.873,8.372,34.904c-0.677,2.818-3.292,5.199-7.621,6.973
		C49.013,57.082,56.611,66.417,56.611,76.012z"/>
</g>
</svg>
